<svg xmlns="http://www.w3.org/2000/svg" viewBox="0 0 1833 239.41"><defs><style>.cls-1{fill:#fff;}</style></defs><title>whub logo</title><g id="Calque_2" data-name="Calque 2"><g id="Calque_2-2" data-name="Calque 2"><path class="cls-1" d="M151.38,175.24l-24.25-74.06q-2.34-7.54-6-22.11h-.61l-2.14,7.54-4.58,14.77L89.14,175.24h-10L47.47,64.51h10.8L76,128.69q6.21,23.84,8.15,35h.61q6-23.84,8.76-31.68l22.82-67.54h9.17l21.7,67.34q7.34,23.94,9,31.68h.61q.81-6.62,8.15-35.45l16.91-63.57H192L162,175.24Z"/><path class="cls-1" d="M343.55,175.24,341,157.72h-.81q-8.35,10.7-17.17,15.13t-20.83,4.43q-16.3,0-25.37-8.35t-9.07-23.13q0-16.2,13.5-25.16t39.07-9.47l21.09-.61v-7.33q0-15.79-6.42-23.84t-20.68-8q-15.38,0-31.89,8.56l-3.77-8.76q18.23-8.56,36.06-8.56Q333,62.57,342,72t9,29.54v73.65Zm-40.75-7.13q17.73,0,28-10.14T341,129.81v-10.9l-19.36.81q-23.33,1.12-33.26,7.28t-9.93,19.2q0,10.39,6.37,16.15T302.8,168.11Z"/><path class="cls-1" d="M493,62.37a86.73,86.73,0,0,1,15.08,1.43l-1.94,9.68a59.06,59.06,0,0,0-14.36-1.73q-14.16,0-23.23,12t-9.07,30.36v61.12H449.44V64.51H458l1,20h.71q6.82-12.22,14.57-17.17T493,62.37Z"/><path class="cls-1" d="M637.44,177.28q-23.74,0-37.18-15t-13.45-41.77q0-27.51,14-42.84T639,62.37a76.84,76.84,0,0,1,27.51,5l-2.75,9q-14.36-4.79-25-4.79-20.38,0-30.87,12.58T597.4,120.34q0,22.41,10.49,35.1t29.34,12.68a72,72,0,0,0,28-5.4v9.37Q654.65,177.28,637.44,177.28Z"/><path class="cls-1" d="M798.54,62.37a86.73,86.73,0,0,1,15.08,1.43l-1.94,9.68a59.06,59.06,0,0,0-14.36-1.73q-14.16,0-23.23,12T765,114.12v61.12H754.94V64.51h8.56l1,20h.71q6.82-12.22,14.57-17.17T798.54,62.37Z"/><path class="cls-1" d="M966,175.24l-2.55-17.52h-.81q-8.35,10.7-17.17,15.13t-20.83,4.43q-16.3,0-25.37-8.35t-9.07-23.13q0-16.2,13.5-25.16t39.07-9.47l21.09-.61v-7.33q0-15.79-6.42-23.84t-20.68-8q-15.38,0-31.89,8.56l-3.77-8.76q18.23-8.56,36.06-8.56,18.23,0,27.25,9.47t9,29.54v73.65Zm-40.75-7.13q17.73,0,28-10.14t10.24-28.17v-10.9l-19.36.81q-23.33,1.12-33.26,7.28t-9.93,19.2q0,10.39,6.37,16.15T925.21,168.11Z"/><path class="cls-1" d="M1113,73.27h-26.08v102h-10.09v-102h-20.58V67.36l20.58-3.77V55q0-20.37,7.49-29.9t24.5-9.52a63.53,63.53,0,0,1,18.34,2.75l-2.34,8.76a54.1,54.1,0,0,0-16.2-2.55q-11.82,0-16.76,7t-4.94,22.67V64.51H1113Z"/><path class="cls-1" d="M1226.22,168.32a75.65,75.65,0,0,0,16.71-1.63v8.15a53.46,53.46,0,0,1-16.91,2.44q-14.67,0-21.65-7.84t-7-24.65V73.27H1181V67.36l16.4-4.58,5.09-25.06h5.2V64.51h32.5v8.76h-32.5v70.09q0,12.74,4.48,18.85T1226.22,168.32Z"/><path class="cls-1" d="M1432.35,175.24h-31.07V108.72q0-24.65-18.34-24.65-13,0-18.85,8.86t-5.81,28.73v53.59h-31.07V16.73h31.07V49q0,3.77-.71,17.73l-.71,9.17h1.63q10.39-16.71,33-16.71,20.07,0,30.46,10.8t10.39,31Z"/><path class="cls-1" d="M1607.62,175.24l-4.18-14.57h-1.63A32.78,32.78,0,0,1,1587.65,173a48.36,48.36,0,0,1-20.88,4.33q-20.07,0-30.26-10.75t-10.19-30.92V61.35h31.07v66.52q0,12.33,4.38,18.49t14,6.16q13,0,18.85-8.71t5.81-28.88V61.35h31.07V175.24Z"/><path class="cls-1" d="M1790,59.21q20.17,0,31.58,15.74T1833,118.09q0,28.22-11.77,43.7t-32,15.48q-20.07,0-31.48-14.57h-2.14l-5.2,12.53h-23.74V16.73h31.07V53.61q0,7-1.22,22.51h1.22Q1768.62,59.21,1790,59.21Zm-10,24.86q-11.51,0-16.81,7.08t-5.5,23.38v3.36q0,18.34,5.45,26.28t17.27,7.95q9.57,0,15.23-8.81t5.65-25.62q0-16.81-5.7-25.21T1780,84.07Z"/><path class="cls-1" d="M239.41,239.41H0V0H239.41ZM12.91,226.5H226.5V12.91H12.91Z"/></g></g></svg>